<svg xmlns="http://www.w3.org/2000/svg" viewBox="0 0 189.41 262.45"><defs><style>.cls-1{fill:#fff;}</style></defs><g id="Layer_2" data-name="Layer 2"><g id="Layer_1-2" data-name="Layer 1"><path class="cls-1" d="M189.35,131.37c0,16.32-.13,32.64.05,48.95a67.3,67.3,0,0,1-6.34,28.8c-8.47,18.74-22.38,32.29-40.41,41.79a97.7,97.7,0,0,1-37,11C78.7,264.38,54,258.19,32.35,241.6,16.18,229.21,5.47,213.1,1.2,193A52.73,52.73,0,0,1,0,182c0-33.27.09-66.55,0-99.82A67.12,67.12,0,0,1,4.16,59c6.9-19.12,19.58-33.52,36.73-44.1A98.06,98.06,0,0,1,81.57.82c26.57-3.08,51.08,2.46,73,18,15.8,11.24,26.85,26.1,32.31,44.88a61.3,61.3,0,0,1,2.53,17.73C189.28,98.1,189.35,114.74,189.35,131.37Zm-17.33,48,1.32-.49L171,177.54l-.35.45,1,1-1.6.21c.92.82,1.45,1.56,2.74,1.3ZM81.41,242.8c.76,1.68,1.47,1.81,3.42.4l-3.47-.35c.24-.51.43-.94,1.22-.68,1.25.4,2.15-.33,2.83-1.27.49-.69.16-1.75-.54-1.67a5.77,5.77,0,0,0-2.74,1.06C81.4,240.83,80.43,241.62,81.41,242.8ZM172.93,71.12a31.38,31.38,0,0,0-4.4-.58c-1.32,0-2.92-.92-4.21.9a7.27,7.27,0,0,0,1.49.41c1.51.08,3,0,4.54.15a3.43,3.43,0,0,0,2.6-.92,6.33,6.33,0,0,0,.24,1.24c.31.78.7,1.52,1.25,2.69-2-.29-3.58-.48-5.13-.72-3.37-.55-3.37-.56-4.32.53a5,5,0,0,0,1.08.43c2.37.36,4.74.77,7.12,1,1.21.11,1.93.51,2.22,1.71.18.73.34,1.56,1.48,1.61V75.62c-1.84-.72-1.62-2.81-2-4.77C174.17,70.94,173.56,71,172.93,71.12ZM83.06,185.34a7.32,7.32,0,0,0,.83-6.6c-1.4-4.16-2.88-8.3-4.28-12.46A3.12,3.12,0,0,0,76.1,164c-1.67.09-3.35.34-5,.36a48.8,48.8,0,0,1-7.16-.16c-3.41-.44-4.46-1.7-4.92-5.15-.12-.95-.08-1.92-.17-2.87a6.3,6.3,0,0,0-.4-2.33c-.94-1.74-2.25-3.35-1.15-5.5,0-.05,0-.16-.06-.23a8.65,8.65,0,0,1-.68-5.14,2.78,2.78,0,0,0-1.88-3c-.88-.38-1.8-.66-2.67-1.06-3-1.38-3.48-2.81-1.85-5.67,1.73-3.06,3.41-6.17,5.4-9.07a11,11,0,0,0,1.7-8.68,13.74,13.74,0,0,1,.8-7.73c.7-1.87,1.33-3.77,2.1-5.61A25.14,25.14,0,0,1,76.37,87.28a59.75,59.75,0,0,1,18.87-3,38.52,38.52,0,0,1,25.12,9.28c5.64,4.74,9.46,10.63,10.29,18.11a32.72,32.72,0,0,1-2.55,16.65c-.9,2.13-1.86,4.24-2.8,6.36a38.42,38.42,0,0,0-2.71,21.35,24.54,24.54,0,0,0,8.56,16c16.29-13.91,24.66-40.43,13-64.81C132.9,83.81,107.22,70.22,79.58,77.4a55.27,55.27,0,0,0-40.82,58.73C41.18,163.65,62.75,181.93,83.06,185.34Zm6.73-52.81h2.48c.72,0,1.45,0,2.16,0,2,.13,2.69,1.31,1.74,3.05-.72,1.32-1.52,2.59-2.37,4l3.63,3c1.25-1.13,2.36-2.16,3.5-3.14,1.56-1.34,2.95-.91,3.55,1.08.43,1.43.8,2.88,1.25,4.49l4.66-.59c.12-2.21.22-4.11.32-5.95,1-1.2,2-1.19,3.17-.37s2.43,1.42,3.8,2.2l2.91-3.75c-1.22-1.26-2.22-2.27-3.21-3.31-1.5-1.59-1.11-3.1,1-3.7,1.37-.38,2.76-.71,4.44-1.14-.23-1.64-.43-3.16-.67-4.93-1.82,0-3.33.1-4.83,0-1.92-.16-2.47-1.25-1.57-2.92.72-1.32,1.5-2.61,2.36-4.1l-3.62-3L110,117.46a2.55,2.55,0,0,1-2.77-2.34c-.25-1.31-.69-2.57-1.11-4.05l-4.69.68c0,1.75-.07,3.19,0,4.62a2.14,2.14,0,0,1-2,2.58l-5.16-3-2.8,3.61c1,1.09,1.87,2,2.72,3,1.93,2.12,1.51,3.5-1.22,4.17-1.29.32-2.56.66-4,1C89.31,129.46,89.53,130.85,89.79,132.53Zm5.08-23.65c-.09-1.46-.18-2.72-.27-4.07l3-2.49-2.1-3.94c-2,.08-3.42,1.6-5.53-.14s-.8-3.61-1.13-5.56l-4.6-1.34c-.41,3.74-2.89,4-5.7,3.74l-2.44-3-4,2.25c.46,1.46.84,2.65,1.19,3.78l-2.78,3.14-4-.52-1.32,4.78c2.77.42,4,1.8,3.76,4.43a2.25,2.25,0,0,1-.92,2c-.71.47-1.35,1.05-2.14,1.68l2.3,4L72,116.52c1,.91,2.43,1.62,2.93,2.74s-.07,2.44-.19,3.94l4.13,1.35c1.49-1.35,1.37-3.6,4.12-3.77s3.09,1.8,4.61,3l3.83-2.08c0-2-2.11-3.84.31-5.39,1.1-2.82,3.46-.85,5.4-1.32.4-1.38.81-2.79,1.24-4.25Zm22.24-15-1.5.86c-2.38,1.4-2.88,1.14-3-1.52,0-.54-.13-1.08-.22-1.81l-2.79-.19c-.33,1.08-.53,1.94-.86,2.74-.42,1.06-1.16,1.26-2,.57s-1.39-1.28-2.13-2a13.83,13.83,0,0,0-1.27.87,11.78,11.78,0,0,0-1,1.07c.48.84,1,1.57,1.33,2.35.56,1.17.2,1.81-1.12,1.92-.92.07-1.85,0-2.77,0-.15.9-.27,1.44-.32,2a4.91,4.91,0,0,0,.12,1c.71.23,1.39.43,2.06.66,1.68.59,1.88,1.23.81,2.59-.52.66-1.09,1.3-1.7,2l1.86,2.21c.87-.51,1.61-1,2.38-1.37,1.2-.63,1.72-.37,2,1,.18.92.26,1.87.39,2.89l2.7.26c.27-.81.47-1.41.66-2,.65-2.09,1.24-2.24,3-.76.53.46,1.08.88,1.71,1.4l2.23-1.88c-.58-1-1.07-1.71-1.45-2.5-.5-1-.15-1.71,1-1.88.92-.15,1.85-.17,2.94-.26l.24-2.83c-.83-.22-1.51-.39-2.18-.58-1.72-.49-2-1.14-.89-2.5.54-.68,1.12-1.32,1.75-2.07Zm57.5,18.56V150.1l1.83-.09V112.36ZM13.83,112.4v37.65h1.65c.59-2.94.5-36.9-.1-37.65ZM148,39.83c-.52,2-3.81,1.51-3.25,4.25,2.36-.16,4.41-1.37,7-.83-.84.66-1.43,1.13-2,1.58a11,11,0,0,0-1.71,1.28c-.23.25-.09.84-.13,1.48.59-.26.82-.32,1-.44.79-.54,1.59-1.06,2.36-1.64a11.94,11.94,0,0,0,2-1.69c1-1.14.59-2.08-.93-2.32a23,23,0,0,0-2.46-.13c.17-.31.27-.51.38-.69,1-1.67.7-2.27-1.23-2.27-1.07,0-2.13.14-3.28.22.3-.83,1.89-.89.9-2.36a23.06,23.06,0,0,0-6,3.68c-.57.47-.53,1.11.11,1.65ZM157.06,46l-.26-.48c-2.36.06-4.36,1.23-6.39,2.25-.39.2-.59.79-.95,1.3,1.44.92,2.69.14,3.9.17s2.48,0,3.84,0c-1,1.58-3.61.84-3.85,3.45h7l.1.44-4.86,2.63c.59.43.92.8,1.06.74a42.59,42.59,0,0,0,5.33-2.64c1.19-.77.83-2.07-.55-2.47-.74-.22-1.51-.32-2.44-.51.33-.35.49-.51.63-.68,1.19-1.43,1-2-.75-2.32-1-.18-2-.28-3.14-.44ZM75.92,28.62l.69-.2c0-.87,0-1.74,0-2.61a16.07,16.07,0,0,0-.12-3.11,2.52,2.52,0,0,0-1.18-1.57c-.31-.15-1.09.41-1.51.81a12.59,12.59,0,0,0-1.35,1.77c-.15-.35-.23-.57-.33-.78-.85-1.76-1.49-1.83-2.6-.2-.58.84-1.08,1.74-1.88,3-.12-1.16.38-2.31-1.2-2.37a20.73,20.73,0,0,0-.32,7.28c0,.29.65.51,1.24.94.49-1.41.88-2.59,1.31-3.77a8.7,8.7,0,0,1,2-3.55c-.08,1.27-.15,2.06-.16,2.85s-.31,1.78.72,2,1.12-.9,1.4-1.57a14.18,14.18,0,0,1,2.23-4.38C76,25,74.17,27.25,75.92,28.62Zm44.29,4.14c2.07-1.71,3.94-3.16,5.68-4.76a3.1,3.1,0,0,0,.83-2.07c0-.8-2.92-2.27-3.67-1.84a20.69,20.69,0,0,0-3.56,2.67,1.68,1.68,0,0,0-.09,1.67,2.07,2.07,0,0,0,1.67.3,15.89,15.89,0,0,0,2.42-.86,10,10,0,0,1-2.26,2.25C120.6,30.67,119.05,30.76,120.21,32.76Zm-5-11.92A21.74,21.74,0,0,0,110.69,27c-.16.33.19.92.36,1.64,2.28-1.46,3.7-3.59,6.51-4.62-.81,1.37-1.39,2.22-1.82,3.15s-1.35,1.69,0,2.73c1.1-1.88,2.17-3.65,3.17-5.45.53-1,.76-1.93-.42-2.68l-2.79,1.1C115.53,22.21,115.39,21.71,115.16,20.84Zm48.13,48.39,6.55-1a1.76,1.76,0,0,0,.65-.27,1.1,1.1,0,0,0,0-2.06c-.67-.4-1.4-.68-2.13-1l1.3-1.37-.23-.5a31.56,31.56,0,0,0-7.25.58c-.3,0-.48.76-.78,1.28,2.46.88,5,.57,7.13,2.12C164,67.86,164,67.86,163.29,69.23ZM30.19,44.29c.15,3,2.22,5.14,3.32,7.72.12.29.77.37,1.17.55-.68-1.9-.09-3.31.53-4.8a13.07,13.07,0,0,0,.84-3.46,2.42,2.42,0,0,0-1.57-2.66c-1.13-.45-1.79.25-2.48.93S30.89,43.63,30.19,44.29ZM164.68,55.75a8.92,8.92,0,0,0-5.15,1c-.41.17-.94.87-.86,1.2a2.29,2.29,0,0,0,1.14,1.24,10.88,10.88,0,0,0,2.13.52c-.54,1.06-2.53.2-2.19,2.28,2.38-.38,4.72-.7,7-1.17.43-.08.73-.77,1.36-1.48L162,57.89C162.51,56.61,164.39,57.69,164.68,55.75ZM22.8,56.44C24,58,25,59.3,26.12,60.48a1.89,1.89,0,0,0,1.67.2c.29-.12.48-.93.44-1.41a20.62,20.62,0,0,0-.54-2.69c1.9,1.94,1.9,1.94,3.09,1.44-1.23-1.86-2.44-3.7-3.67-5.54-.44-.67-1-1-2.05-.39.35,1.81.72,3.7,1.08,5.61C24.79,57.79,25,55.35,22.8,56.44ZM108.91,237c-2.85-.49-4.83.07-5.9,1.71h1.87a29.21,29.21,0,0,0-.85,3.17c-.16,1-.87,2,0,3a9.55,9.55,0,0,0,.9-2.43c.31-1.15.62-2.31.92-3.47s1-1.21,1.89-.86c.12,2-1.28,3.85-.45,6.36l2.7-4,.33.2v3c1.4-2.3,1.46-3.7.26-5.1l-1.83,1.35C108.79,238.86,108.84,238,108.91,237Zm-61.36-9.2c.9-.79,1.54-1.35,2.16-1.91-1.59-2.4-4-3.55-5.52-2.65l1.51.87c-1.61,1.6-3.9,2.17-5,4.15a4.22,4.22,0,0,0,1.72-.67c1.21-.78,2.42-1.55,3.6-2.37.94-.66,1.59-.46,2.13.64a24.85,24.85,0,0,0-2.43,1.87c-.68.67-2.15.81-1.85,2.47l4.34-1.16a2.47,2.47,0,0,1-.83,1.32c-.35.35-.67.73-1.22,1.35,2.65-.8,3.65-1.81,3.72-3.62ZM48,28.57a36.4,36.4,0,0,0,1.38,9.09c.23.78.55,1.54,1.61,1,.34-5.17.34-5.17,1.68-6.32-.24,1.13-.4,2-.59,2.79s-1,1.58.39,2.18a4.44,4.44,0,0,0,1.39-3.44,3.6,3.6,0,0,0-1-2.47c-.85-.8-1.76-.15-2.45.62-.12.12-.36.12-.49.16C49.1,31.1,50.08,29.34,48,28.57ZM19.5,83.94c-.34-.1-1.06-.13-1.12-.35-.41-1.46-.68-3-1-4.61-1.88.16-.81,2.1-1.64,3.16-.55-.39-1.43-.67-1.61-1.2a17.23,17.23,0,0,1-.48-3.56c-.47.31-1.07.49-1.13.78-.34,1.52-.88,3.08-.17,4.24L15.62,84a21.12,21.12,0,0,0,2.14,1c2,.71,3.31-.2,3.24-2.34a13,13,0,0,0-.42-2.17C18.55,81.33,20.33,82.87,19.5,83.94Zm138,135c-.09-1.46-.18-2.92-.31-4.91l2.23,3c-.33-3-1.26-4.25-3.08-4.2-.1.65-.21,1.31-.38,2.34l-1.77-2.83a8.73,8.73,0,0,0-3.81,4c-.13.26,0,.66.07,1.22l1.46-1.39c1.28,1.9,1.38,4.22,3.19,5.63a3.31,3.31,0,0,0-.21-1.52c-.61-1.47-1.27-2.92-1.89-4.39-.43-1-.09-1.63,1-1.91C155.16,215.69,155.43,217.81,157.5,219ZM94.4,239.5l-2.3,1.16-1-1.69c-.87.66-1.61,1.21-2.33,1.74-.23-.42-.44-.78-.82-1.45-.81,2-1.94,3.52-1.51,6l3.46-4.06.26.25c-.2.93-.41,1.86-.61,2.8l.55.3,3.31-3.51c.47,1.52-1,2.59,0,4.16C94.16,243.29,95.24,241.79,94.4,239.5ZM15.35,65.5c2.35,2.34,4.52,4.55,6.76,6.69.25.24.87.09,1.82.16l-1.6-2c.16-.95,1.37-1.56.58-2.79l-1.72,1c-.57-1.64-1.09-3.17-1.6-4.65-1.77.16-.57,1.65-1.23,2.22C17.34,66.28,17.08,64.24,15.35,65.5ZM166.78,81.82c2.6.83,5.06,1.66,7.55,2.36a1.5,1.5,0,0,0,1.32-.62,1.57,1.57,0,0,0-.38-1.4c-1-1-2-1.78-3-2.6l1.06-1.72c-1.34-.65-2.38-.64-3,.42s.17,1.78.91,2.44c.32.29.58.64,1.25,1.38-1.43-.45-2.32-.75-3.22-1S167.49,80.09,166.78,81.82ZM60.11,30.46c2.21-.58,3.56-1.85,3.65-3.63A2.33,2.33,0,0,0,63,25a2,2,0,0,0-1.88.2,9,9,0,0,0-2,2.87,3.42,3.42,0,0,0,1.09,4.29c1.07.66,2.48.36,3.91-.9a4.61,4.61,0,0,0,.67-.89c-.39-.88-.85-.95-1.52-.39a10,10,0,0,1-2,1.33C60.53,31.87,60.08,31.5,60.11,30.46ZM40.56,42.83a21.32,21.32,0,0,0,.74-2.6c.34-2.06-.89-3.07-2.81-2.33a16.1,16.1,0,0,0-2,1.09c.82,2.48,1.59,4.8,2.38,7.12.21.64.55,1.19,1.54.75l-.2-1.9,3.23-1.09C42.92,42.08,41.69,43.12,40.56,42.83Zm96.79-11.41c.82-1,1.23-1.71.72-2.58a1.86,1.86,0,0,0-2.3-.73,9.17,9.17,0,0,0-5.13,3.28c-1.16,1.48-1.43,2.81-.73,3.71,1,1.23,2.29.85,3.53.64a5.9,5.9,0,0,0,1.31-.6c-1-2.12-2.91.21-3.94-1,.85-2.66,3.06-4.26,6.19-4.48ZM97,21.1c.05-2-1.32-2.84-3-2s-3,4.71-2,6.5a1.51,1.51,0,0,0,2.58.44A9,9,0,0,0,97,21.1Zm7.55-1.85a15.85,15.85,0,0,0-2.56,6,1.83,1.83,0,0,0,.58,1.58,1.72,1.72,0,0,0,1.6-.4c1.6-2,3.1-4.05,4.56-6.14.16-.23-.15-.8-.35-1.69l-4.21,5.55C103.73,22.32,105.88,21.3,104.54,19.25Zm37,13.33c-2.46,0-5.32,2.55-5.47,4.33-.11,1.29.89,2.26,2.11,1.76a22.81,22.81,0,0,0,4.29-2.51,1.87,1.87,0,0,0,.62-2.56A3.75,3.75,0,0,0,141.54,32.58Zm-93.8,7a26.72,26.72,0,0,0-1.19-4.38,2.75,2.75,0,0,0-2-1.33c-.53,0-1.3.8-1.65,1.43-1.09,1.9,0,3.52.93,5.1.55.92,1.36,1.87,2.48,1.27C47,41.36,47.29,40.31,47.74,39.62ZM131,231.24c-1.11,2.68-.47,4.79,1.61,5.87l.87-2.51c1.5.93,1.87,1,2.31.36.83-1.15.32-4.68-.91-5.92-.44,1.59.76,3.19,0,4.77-1.15-.59-.67-2.3-2.34-2.54L132,234.6h-.43ZM86.59,22.66a3.4,3.4,0,0,1,3.79-2.17c-.9-1.63-1.54-1.9-2.8-1a5.53,5.53,0,0,0-1.81,2.12c-.73,1.54,1.14,2.13,1.66,3.35l-2.77.2a2.89,2.89,0,0,0,3.58,1.09c1.26-.51,1.43-1.48.34-2.35A19.19,19.19,0,0,0,86.59,22.66Zm-64,40.65a3.23,3.23,0,0,1,0-4.16c-.76-.73-1.44-.51-1.82.19a3.64,3.64,0,0,0,.1,3.64c1,1.78,2.44,1.24,4.1.93-.45.75-.91,1.5-1.48,2.46.56,0,1.08.15,1.23,0a10.8,10.8,0,0,0,1.58-2.28c.2-.42.17-1.31-.1-1.49a2.34,2.34,0,0,0-1.7-.19A10.11,10.11,0,0,0,22.56,63.31ZM171.38,197.46c.26-1.19.45-2.05.65-3-.76-.71-1.53-1.52-2.38-2.21s-1.17-1.87-2.63-1.65c.59,1.21,1.58,2,.88,3.55-.23.5.82,1.77,1.5,2.47C169.85,197.13,170.69,197.2,171.38,197.46ZM76.29,236.55l-.57-.41a16.29,16.29,0,0,0-3.6,6l2,.22a3,3,0,0,0,2.94-1.94c.38-1.48-.8-1.62-1.84-1.84Zm43.51.11-1.32-.72c0,2-.86,3.77.33,6l2-4.71c.84,1.26-.22,2.71,1.3,3.6-.11-2,.57-3.94-.9-6.31C120.61,235.44,120.23,236,119.8,236.66ZM97.73,26.88l.64,0,4.23-8.17c.42-.82,0-1.11-1-1.41-1.37,2.78-2.75,5.52-4,8.3C97.4,25.91,97.66,26.44,97.73,26.88ZM56.46,236.7c1.67-.2,3-.36,4.31-.54a5.19,5.19,0,0,0,1.83-.38,2.16,2.16,0,0,0,1.06-1.37,2.25,2.25,0,0,0-.82-1.5,7.66,7.66,0,0,0-1.79-.86C59,233,58,235,56.46,236.7Zm.43-201.08.42-.3c-.14-3.15-.27-6.3-.47-9.44,0-.23-.61-.42-1.25-.83A44.47,44.47,0,0,0,56,34.81C56.05,35.12,56.59,35.35,56.89,35.62Zm90.64,190.51-.61-.58a3.13,3.13,0,0,0,1.74-3.35,1.43,1.43,0,0,0-.78-1,1.53,1.53,0,0,0-1.23.43,3.75,3.75,0,0,0-.41,4,1.77,1.77,0,0,0,2.21.91c1-.3,1.32-1,1.2-2.32Zm24.84-34.65a19.24,19.24,0,0,0-.5-3.37c-.15-.43-1-.62-1.5-.92-.28.5-.85,1-.79,1.5a5.55,5.55,0,0,0,.94,2.39,2.2,2.2,0,0,0,2.75.76c.87-.46,1-1.53.37-3.05C172.59,189.38,173.76,191.06,172.37,191.48ZM26.48,208.11c1.24,1.21,2,1.34,2.62.52a1.46,1.46,0,0,0,.25-1.08c-.22-.9-2-1.78-3.21-1.66s-1.49,1-1.44,2c0,.36,0,.71-.08,1.42l-1.88-1.73-.4.26a7.45,7.45,0,0,0,1,1.67,1.72,1.72,0,0,0,1.41.52,1.84,1.84,0,0,0,.85-1.26,9.1,9.1,0,0,0-.14-2.19l2.95,1-.08.45Zm38.61,30.17c1.18-.49,2.74-.33,2.81-1.9,0-1.1-.93-1.51-1.8-1.81-2.46,2.07-3.28,3.13-3.74,5,1.25-1.17,1.92-.3,2.67.41.11.11.4,0,.8.06-.13-.41-.19-.69-.3-.95S65.25,238.58,65.09,238.28ZM143,223.73c1.17,1.91.7,4.27,2.28,6.42a5.91,5.91,0,0,0,.2-1.51c-.32-1.39-.69-2.78-1.09-4.15-.31-1.07-.42-2,.71-2.73.21-.14.29-.48.55-.91-2.48.19-3.34,2.2-4.78,3.39-.08.07.23.61.39,1Zm-29.34,17.46a14,14,0,0,0,2.52-2c.31-.39,0-1.28-.05-1.94-.59.09-1.41,0-1.73.32a7.32,7.32,0,0,0-1.54,2.6,1.84,1.84,0,0,0,1.28,2.24c1,.25,1.81-.2,2.37-1.4C114.5,241.47,114.5,241.47,113.66,241.19Zm24.48-7.53c0-.2.33-.51.72-.81a5.42,5.42,0,0,1,1.69-.94c.16,0,.27-.28.53-.57l-1.45-.55c.06-1.26.48-2.5.06-3.29-.51-1-1.66-.43-2.61.13A12.66,12.66,0,0,0,138.14,233.66Zm-85.32.26-2-1.81a16.38,16.38,0,0,0,3.1.08c.4-.05.87-.85,1-1.37.05-.24-.72-.9-1.12-.9a6.69,6.69,0,0,0-2.74.53,2,2,0,0,0-1.09,2.6C50.39,234.07,51.3,234.35,52.82,233.92ZM14.91,192.43l1.16-1.4c1,.41,1.82,2,3.11,1,.91-.72.75-1.83,0-2.81-1.84,0-3.69-.6-5.32-.14C13.94,189.38,14.63,191.56,14.91,192.43Zm145.5,20.49a16.88,16.88,0,0,0,.89-3.08c.08-.78-.29-1.77-1.3-1.62a2,2,0,0,0-1.23,1.43,5.15,5.15,0,0,0,.34,2.54,1.92,1.92,0,0,0,2.5,1.26c.88-.37,1.26-1.34,1-2.69C161.57,211.13,162,213,160.41,212.92ZM25.06,200.55c.11-2.26-1-3.65-3-4.55l.65,1.58c-2,.85-4.22,0-6,1.26a14,14,0,0,0,4,.14C22.49,198.68,24,198.57,25.06,200.55Zm10.3,20.69a26.16,26.16,0,0,0,3.52.87c.35,0,1-.56,1.12-1s-.35-1-.73-1.28a3.42,3.42,0,0,0-3.8.32,1.78,1.78,0,0,0-.55,2.34,1.9,1.9,0,0,0,2.43,1.1C37.2,222.28,34.85,222.81,35.36,221.24Zm-8-7a17.68,17.68,0,0,0,3.18-1.1c1.24-.71,1.07-1.91-.22-2.5a3.67,3.67,0,0,0-3.82,1.13,2.15,2.15,0,0,0-.44,1.63C26.16,213.79,26.89,214,27.38,214.29Zm139.38-17.12c-.9,0-1.44.77-1.3,1.85s2.2,3,3.35,2.95a1.64,1.64,0,0,0,1.17-.9C170.36,199.9,168,197.18,166.76,197.17Zm-98.94,43c.09.18.2.87.57,1.06a1.64,1.64,0,0,0,1.5-.2A12.32,12.32,0,0,0,72,238.48a1.59,1.59,0,0,0-.16-1.49,2,2,0,0,0-1.5-.36C69.19,236.76,68,238.34,67.82,240.19Zm-32.11-24.1a6.53,6.53,0,0,0-4.55,2.18.8.8,0,0,0,.61,1.36,14.78,14.78,0,0,0,5.85-1.83l-.17-.59-4.12,1.07-.1-.23Zm130.92-9.77a5.51,5.51,0,0,1-3.11-4.62l1.25-.46c-1.84-.57-2.41-.27-2.23,1a6,6,0,0,0,2.35,4c1,.79,2.05.84,2.57.18s.4-1.84-.55-3C166.82,204.43,166.73,205.25,166.63,206.32ZM110.83,20.38c-1.4,2.21-2.69,4.17-3.89,6.19-.12.21.3.74.67,1.57,1.46-2.47,2.72-4.55,3.92-6.67C111.59,21.35,111.23,21,110.83,20.38Zm-95.76,164c1.23-1,1.23-1,3.2.88.26-.86.41-1.82-.45-2.1a10.68,10.68,0,0,0-6.17-.66Zm.93,9.47c-.48,1.31-.31,2.34,1.27,2.77L18.48,194,20.83,196c.71-1.25-.21-1.77-1-2.25-1.58-1-2.24.48-3,1.51ZM77.63,243.9c2-2.16,3.64-5.06,3.73-6.27A10.75,10.75,0,0,0,77.63,243.9ZM18,76.93c1.41-4.13,1.41-4.13.41-4.89-.92,1.44-1.51,3-1.31,3.92C17.16,76.25,17.55,76.47,18,76.93ZM35.26,214.48c-1.41-.91-5.84.58-6.92,2.43ZM79,24.39c.75-.15,1.28-.27,1.82-.35S82,24,82.5,23.84c1-.2,1.15-.71.55-1.49C79.2,22.65,79.2,22.65,79,24.39ZM17.86,187.21c-1.63-.72-3.26-1.25-5-.53A6.91,6.91,0,0,0,17.86,187.21Zm123.7,38.27c-.42,2.5,0,4.19,1.2,5.44A11.31,11.31,0,0,0,141.56,225.48ZM15.43,180a2.19,2.19,0,0,0,2.66,0l-1.22-.63,1.34-.92-2.78-.52V180Zm97.13-161.9c-.8.89-1.48,1.5-.6,2.71C112.77,20.05,113.53,19.52,112.56,18.09Zm62.51,168.24c-.34-.25-.56-.54-.79-.55s-.37.33-.55.51a2.82,2.82,0,0,0,.7.46C174.55,186.78,174.75,186.55,175.07,186.33Zm-156.47.92,0,.57,1.19-.18,0-.39Zm78.7,56.48-.55-.59a2.87,2.87,0,0,0-.54.63c0,.1.29.49.33.47A4.58,4.58,0,0,0,97.3,243.73Z"/><path class="cls-1" d="M99.47,127.94a6.5,6.5,0,0,1,6.39-6.44,6.51,6.51,0,0,1,.06,13A6.35,6.35,0,0,1,99.47,127.94Z"/><path class="cls-1" d="M81.7,100.13a8,8,0,0,1,.16,16A8.26,8.26,0,0,1,73.7,108,8,8,0,0,1,81.7,100.13Z"/><path class="cls-1" d="M110,97.32a4,4,0,0,1,3.88,4.28,4.24,4.24,0,0,1-4.34,3.93,4,4,0,0,1-3.85-4.09A4.1,4.1,0,0,1,110,97.32Z"/><path class="cls-1" d="M34.5,42.51a7.86,7.86,0,0,1-1,5.24C31.71,45.64,31.89,44.57,34.5,42.51Z"/><path class="cls-1" d="M60.44,28.41l1.35-1.89.49.34L61,28.79Z"/><path class="cls-1" d="M40.52,39.29c-.31,1-.63,2-.94,3l-.48.09c-.31-.78-.62-1.57-1-2.59l2-1Z"/><path class="cls-1" d="M93.5,25c-.6-2.68,0-3.91,2.14-4.83A7.1,7.1,0,0,1,93.5,25Z"/><path class="cls-1" d="M142.44,34.21a8.64,8.64,0,0,1-4.72,3.09C138.6,34.76,139.53,34.11,142.44,34.21Z"/><path class="cls-1" d="M45.93,40.48c-2.2-2.62-2.33-3.48-1-5.44C46.07,36.6,45.94,38.29,45.93,40.48Z"/><path class="cls-1" d="M76.08,240.36l-1.55,1-.28-.44,1.53-1Z"/><path class="cls-1" d="M59.72,234.92c1.1-1.52,1.1-1.52,3.14-.75C61.68,235.21,61.68,235.21,59.72,234.92Z"/><path class="cls-1" d="M67.39,236.91l-2.45.44C66,235.61,66,235.61,67.39,236.91Z"/><path class="cls-1" d="M138.37,230.46c-.48-2.22-.48-2.22,1.25-2.22Z"/><path class="cls-1" d="M16.45,190.23c1.49-.34,2.34-.36,2.07,1.64Z"/><path class="cls-1" d="M160.39,209.72c-.1.38-.21.76-.31,1.14l-.31-.05.08-1.18Z"/><path class="cls-1" d="M37.31,220.39c.33.12.66.22,1,.35,0,0,0,.24-.06.37l-1-.21Z"/><path class="cls-1" d="M26.94,213a2.86,2.86,0,0,1,3.56-1.1C29.53,213.06,28.38,213.11,26.94,213Z"/><path class="cls-1" d="M168.68,200.67a2.85,2.85,0,0,1-2.32-2.68C167.94,198.45,168.31,199.57,168.68,200.67Z"/><path class="cls-1" d="M71.64,237.63,69,240.79C69.23,238.25,69.32,238.15,71.64,237.63Z"/><path class="cls-1" d="M171,188.68l.15,1.17-.31.07-.38-1.12Z"/><path class="cls-1" d="M147.65,222.63c-.11.38-.21.75-.31,1.13l-.32,0,.08-1.19Z"/><path class="cls-1" d="M115.34,238.93l-1,.64-.21-.24.85-.83Z"/><path class="cls-1" d="M84.22,240.75l-1,.65-.2-.25.85-.83Z"/><path class="cls-1" d="M53.24,231.36l-1.18.12-.06-.31,1.13-.35Z"/><polygon class="cls-1" points="17.2 179.1 15.43 178.96 15.43 179.59 17.37 179.59 17.2 179.1"/><polyline class="cls-1" points="12.85 184.39 13.02 183.21 14.37 183.22"/><polyline class="cls-1" points="171.16 178.68 172.39 179.25 172.15 179.62 171.16 179.15"/><polygon class="cls-1" points="146.88 212.33 146.56 212.76 146.44 213.34 146.66 213.88 147.12 214.29 148.08 214.94 148.63 214.41 148.75 213.64 148.37 213.04 146.88 212.33"/><polygon class="cls-1" points="169.57 193.63 170.81 194.04 170.81 195.27 170.47 196.16 169.81 195.88 169.52 195.08 169.2 194.38 169.57 193.63"/><polygon class="cls-1" points="15.35 190.06 15.35 190.58 14.38 191.08 13.85 190.06 15.35 190.06"/><polygon class="cls-1" points="15.35 183.95 15.43 183.46 16.7 183.46 17.37 183.58 17.37 184.39 15.35 183.95"/><polyline class="cls-1" points="14.37 183.22 14.37 183.92 12.85 184.52"/><polygon class="cls-1" points="123.36 26.12 121.18 27.06 121.18 27.41 123.64 26.77 125.63 25.77 125.11 25.46 123.36 26.12"/><polygon class="cls-1" points="138.1 231.74 138.86 232.85 139.87 232.19 138.1 231.74"/></g></g></svg>